<svg id="visual" viewBox="0 0 900 675" width="900" height="675" xmlns="http://www.w3.org/2000/svg" xmlns:xlink="http://www.w3.org/1999/xlink" version="1.1"><path d="M250 0L252.7 16C255.3 32 260.7 64 253.8 96.2C247 128.3 228 160.7 219.7 192.8C211.3 225 213.7 257 221.5 289.2C229.3 321.3 242.7 353.7 248.7 385.8C254.7 418 253.3 450 246 482.2C238.7 514.3 225.3 546.7 238 578.8C250.7 611 289.3 643 308.7 659L328 675L0 675L0 659C0 643 0 611 0 578.8C0 546.7 0 514.3 0 482.2C0 450 0 418 0 385.8C0 353.7 0 321.3 0 289.2C0 257 0 225 0 192.8C0 160.7 0 128.3 0 96.2C0 64 0 32 0 16L0 0Z" fill="#00cccc"></path><path d="M150 0L145.5 16C141 32 132 64 124.8 96.2C117.7 128.3 112.3 160.7 129.3 192.8C146.3 225 185.7 257 202.7 289.2C219.7 321.3 214.3 353.7 199.5 385.8C184.7 418 160.3 450 160.5 482.2C160.7 514.3 185.3 546.7 187.8 578.8C190.3 611 170.7 643 160.8 659L151 675L0 675L0 659C0 643 0 611 0 578.8C0 546.7 0 514.3 0 482.2C0 450 0 418 0 385.8C0 353.7 0 321.3 0 289.2C0 257 0 225 0 192.8C0 160.7 0 128.3 0 96.2C0 64 0 32 0 16L0 0Z" fill="#007bb5"></path><path d="M75 0L81.7 16C88.3 32 101.7 64 98.7 96.2C95.7 128.3 76.3 160.7 77.3 192.8C78.3 225 99.7 257 99.5 289.2C99.3 321.3 77.7 353.7 79.5 385.8C81.3 418 106.7 450 113.7 482.2C120.7 514.3 109.3 546.7 96 578.8C82.7 611 67.3 643 59.7 659L52 675L0 675L0 659C0 643 0 611 0 578.8C0 546.7 0 514.3 0 482.2C0 450 0 418 0 385.8C0 353.7 0 321.3 0 289.2C0 257 0 225 0 192.8C0 160.7 0 128.3 0 96.2C0 64 0 32 0 16L0 0Z" fill="#102770"></path></svg>